<svg xmlns="http://www.w3.org/2000/svg" xmlns:xlink="http://www.w3.org/1999/xlink" width="227.393" height="40.021" viewBox="0 0 227.393 40.021">
  <defs>
    <clipPath id="clip-path">
      <path id="Pfad_3" data-name="Pfad 3" d="M0-34.652H227.393V-74.673H0Z" transform="translate(0 74.673)" fill="none"/>
    </clipPath>
  </defs>
  <g id="Gruppe_12" data-name="Gruppe 12" transform="translate(0 74.674)">
    <g id="Gruppe_1" data-name="Gruppe 1" transform="translate(0 -50.424)">
      <path id="Pfad_1" data-name="Pfad 1" d="M-8.782,0V5.873h-6.037V0h-4.105V15.446h4.105V9.187h6.037v6.26h4.105V0Z" transform="translate(18.924)" fill="#fff"/>
    </g>
    <g id="Gruppe_3" data-name="Gruppe 3" transform="translate(0 -74.673)" clip-path="url(#clip-path)">
      <g id="Gruppe_2" data-name="Gruppe 2" transform="translate(23.495 24.249)">
        <path id="Pfad_2" data-name="Pfad 2" d="M-6.142-13.656a7.161,7.161,0,0,1-5.244-1.819,6.958,6.958,0,0,1-1.85-5.193v-8.759H-9.13v8.475a4.363,4.363,0,0,0,.742,2.785,2.72,2.72,0,0,0,2.246.914q3.007,0,3.008-3.7v-8.475H.972v8.759a6.981,6.981,0,0,1-1.84,5.193,7.184,7.184,0,0,1-5.274,1.819" transform="translate(13.235 29.427)" fill="#fff"/>
      </g>
    </g>
    <g id="Gruppe_4" data-name="Gruppe 4" transform="translate(46.95 -50.424)">
      <path id="Pfad_4" data-name="Pfad 4" d="M0,0V15.446H11.016V12.194H3.882V9.228H9.9V6.015H3.882V3.252h6.85V0Z" fill="#fff"/>
    </g>
    <g id="Gruppe_5" data-name="Gruppe 5" transform="translate(65.771 -50.424)">
      <path id="Pfad_5" data-name="Pfad 5" d="M0,0V3.292H4.735V15.446H8.841V3.292h4.735V0Z" fill="#fff"/>
    </g>
    <g id="Gruppe_6" data-name="Gruppe 6" transform="translate(87.254 -50.424)">
      <path id="Pfad_6" data-name="Pfad 6" d="M0,0V3.292H4.735V15.446H8.841V3.292h4.735V0Z" fill="#fff"/>
    </g>
    <g id="Gruppe_7" data-name="Gruppe 7" transform="translate(109.265 -50.424)">
      <path id="Pfad_7" data-name="Pfad 7" d="M0,0V15.446H11.016V12.194H3.881V9.228H9.9V6.015H3.881V3.252h6.85V0Z" fill="#fff"/>
    </g>
    <g id="Gruppe_8" data-name="Gruppe 8" transform="translate(129.163 -50.424)">
      <path id="Pfad_8" data-name="Pfad 8" d="M-9.134,0V9.389L-16.187,0h-3.5V15.446h3.719V6.077l7.032,9.37h3.517V0Z" transform="translate(19.682)" fill="#fff"/>
    </g>
    <g id="Gruppe_9" data-name="Gruppe 9" transform="translate(152.78 -50.424)">
      <path id="Pfad_9" data-name="Pfad 9" d="M-8.782,0V5.873h-6.036V0h-4.106V15.446h4.106V9.187h6.036v6.26h4.106V0Z" transform="translate(18.924)" fill="#fff"/>
    </g>
    <g id="Gruppe_10" data-name="Gruppe 10" transform="translate(175.178 -50.424)">
      <path id="Pfad_10" data-name="Pfad 10" d="M-5.244,0-11.3,15.446h4.044l1.18-3.556h5.63l1.2,3.556H5.04L-1.017,0Zm1.972,3.516L-1.5,8.78H-5.041Z" transform="translate(11.301)" fill="#fff"/>
    </g>
    <path id="Pfad_11" data-name="Pfad 11" d="M372.556-13.982h4.106V-29.428h-4.106Z" transform="translate(-172.887 -20.997)" fill="#fff"/>
    <g id="Gruppe_11" data-name="Gruppe 11" transform="translate(213.125 -50.424)">
      <path id="Pfad_12" data-name="Pfad 12" d="M-9.133,0V9.389L-16.186,0h-3.495V15.446h3.719V6.077l7.032,9.37h3.517V0Z" transform="translate(19.681)" fill="#fff"/>
    </g>
    <path id="Pfad_13" data-name="Pfad 13" d="M144.677-68.062h72.315v-6.612H144.677Z" transform="translate(-67.138)" fill="#fff"/>
    <path id="Pfad_14" data-name="Pfad 14" d="M87.877-68.062H115v-6.612H87.877Z" transform="translate(-40.78)" fill="#fff"/>
    <path id="Pfad_15" data-name="Pfad 15" d="M285.809-68.062h27.118v-6.612H285.809Z" transform="translate(-132.631)" fill="#fff"/>
  </g>
</svg>
